<svg width="512" height="512" viewBox="0 0 512 512" fill="none" xmlns="http://www.w3.org/2000/svg">
  <g transform="translate(128, 128)">
    <!-- Clipboard background -->
    <rect x="32" y="16" width="192" height="240" rx="16" fill="currentColor"/>
    
    <!-- Clipboard clip -->
    <rect x="96" y="0" width="64" height="32" rx="8" fill="currentColor"/>
    
    <!-- Checklist items -->
    <g fill="currentColor">
      <!-- Item 1 - Completed -->
      <circle cx="64" cy="64" r="8"/>
      <path d="m58 64 4 4 8-8" stroke="white" stroke-width="2" fill="none"/>
      <rect x="88" y="60" width="120" height="8" rx="4"/>
      
      <!-- Item 2 - Partial -->
      <circle cx="64" cy="96" r="8"/>
      <rect x="88" y="92" width="120" height="8" rx="4"/>
      
      <!-- Item 3 - Not started -->
      <circle cx="64" cy="128" r="8"/>
      <rect x="88" y="124" width="120" height="8" rx="4"/>
      
      <!-- Item 4 - Completed -->
      <circle cx="64" cy="160" r="8"/>
      <rect x="88" y="156" width="120" height="8" rx="4"/>
      
      <!-- Item 5 - Partial -->
      <circle cx="64" cy="192" r="8"/>
      <rect x="88" y="188" width="120" height="8" rx="4"/>
    </g>
    
    <!-- Progress bar at bottom -->
    <rect x="48" y="224" width="160" height="16" rx="8"/>
  </g>
</svg>
